<svg width="285" height="44" fill="none" xmlns="http://www.w3.org/2000/svg"><g clip-path="url(#clip0)" fill="#CBD5E0"><path d="M56.246 18.805c.524-2.515 1.938-4.138 4.715-4.138 2.619 0 3.98 1.519 4.4 4.138h-9.115zm4.82-9.115c-7.282 0-11.263 4.977-11.263 11.629 0 6.757 4.505 11.629 11.262 11.629 6.181 0 9.639-3.458 10.372-7.596h-5.238c-1.1 2.096-3.3 2.672-4.977 2.672-2.723 0-4.661-1.781-5.028-4.767h15.4c.105-.733.105-1.31.105-1.938-.053-7.176-4.086-11.629-10.634-11.629zM89.456 9.9l-4.243 6.81L80.97 9.9h-7.438l7.7 11.471-7.7 11.42h7.543l4.138-6.705 4.19 6.704h7.49l-7.7-11.366 7.7-11.524h-7.437zM111.456 27.238c-2.253 0-4.138-1.467-4.924-3.614v-4.767c.733-2.148 2.671-3.667 4.924-3.667 3.143 0 5.29 2.672 5.29 6.024-.052 3.405-2.147 6.024-5.29 6.024zm1.257-17.548c-2.567 0-4.61.734-6.181 2.253l-.419-1.99h-6.129v33.995l6.548.052V30.643c1.571 1.519 3.667 2.357 6.181 2.357 6.181 0 10.529-5.133 10.529-11.733 0-6.6-4.348-11.577-10.529-11.577zM126.646 32.79h6.076V1.571h-6.076v31.22zM149.013 27.29c-3.195 0-5.343-2.619-5.343-5.971s2.148-6.024 5.343-6.024c3.143 0 5.343 2.671 5.343 6.024 0 3.352-2.2 5.971-5.343 5.971zm0-17.757c-6.914 0-11.838 5.186-11.838 11.786 0 6.547 4.924 11.786 11.838 11.786 6.862 0 11.838-5.186 11.838-11.786 0-6.652-4.976-11.786-11.838-11.786zM170.332 13.043l-.367-3.143h-6.181v22.89h6.6v-9.9c0-5.761 2.934-7.438 8.539-7.438V9.692c-5.134-.053-7.91 1.728-8.591 3.352zM194.375 26.347c-1.257 1.1-2.776 2.043-4.662 2.043-1.624 0-2.724-.943-2.724-2.462 0-1.519 1.886-2.357 4.295-2.723l3.143-.42v3.562h-.052zm5.971-1.152v-6.862c0-6.024-3.719-8.59-9.324-8.59-6.966 0-9.638 4.085-9.9 8.485h5.343c.262-2.776 2.305-3.51 4.4-3.51 2.253 0 3.51.944 3.51 3.563v.366l-4.505.42c-5.028.47-9.376 2.933-9.376 7.176 0 4.4 3.09 6.81 7.438 6.81 2.986 0 5.762-.996 7.071-2.567 1.205 2.514 3.562 2.304 5.5 2.304.629 0 1.205-.052 1.677-.052v-4.82c-.838.053-1.834-.523-1.834-2.723zM218.889 9.586c-2.724 0-5.605 1.152-7.333 3.09l-.367-2.776h-5.971v22.89h6.6V19.12c0-2.358 2.514-3.772 5.081-3.772 2.514 0 3.771 1.1 3.771 3.405V32.79h6.6V17.967c.053-5.343-3.09-8.381-8.381-8.381zM241.413 15.086c2.724 0 4.767 1.885 5.028 3.98h5.762c-.314-3.561-2.566-9.376-11.419-9.376-6.757 0-11.052 4.767-11.052 11.629 0 6.862 4.348 11.681 11.052 11.681 8.853 0 11.053-5.762 11.419-9.586h-5.762c-.314 1.99-2.304 4.138-5.028 4.138-3.457 0-5.133-2.671-5.133-6.233.052-3.614 1.676-6.233 5.133-6.233zM260.323 18.805c.523-2.515 1.938-4.138 4.714-4.138 2.619 0 3.981 1.519 4.4 4.138h-9.114zm4.766-9.115c-7.281 0-11.262 4.977-11.262 11.629 0 6.757 4.505 11.629 11.262 11.629 6.181 0 9.586-3.458 10.372-7.596h-5.238c-1.1 2.096-3.3 2.672-4.977 2.672-2.723 0-4.661-1.781-5.028-4.767h15.4c.105-.733.105-1.31.105-1.938 0-7.176-4.034-11.629-10.634-11.629zM281.327 26.348c-1.833 0-3.404 1.571-3.404 3.457 0 1.833 1.571 3.405 3.404 3.405 1.886 0 3.458-1.572 3.458-3.405 0-1.886-1.572-3.457-3.458-3.457zM7.008 8.643l1.1 4.714-5.133 5.134v.104l-.053.053a3.74 3.74 0 00-.995 2.567c0 .838.262 1.57.734 2.2.052.052.104.157.157.209 0 0 0 .052.052.052l.314.315.053.052.21.21 6.6 6.6 9.585-9.586L7.008 8.643zM13.451 34.31l-2.933 2.933 4.714-1.1 5.133 5.133.053.052.052.053a3.74 3.74 0 002.567.995c.838 0 1.571-.262 2.2-.733.052-.053.157-.105.21-.157 0 0 0-.053.052-.053l.314-.314s.052 0 .052-.052l.21-.21 6.6-6.6-9.586-9.586-9.638 9.639zM32.675 8.119l2.933-2.933-4.766 1.1-5.134-5.134-.052-.052-.052-.053a3.74 3.74 0 00-2.567-.995c-.838 0-1.572.262-2.2.734-.052.052-.157.104-.21.157l-.052.052-.314.314s0 .053-.053.053l-.21.21-6.547 6.547 9.586 9.586 9.638-9.586zM43.518 19.014c-.053-.052-.105-.157-.157-.21 0 0 0-.052-.053-.052l-.314-.314-.052-.052-.21-.21-6.6-6.6-9.586 9.638 9.586 9.586 2.933 2.933-1.1-4.714 5.134-5.133.052-.053.052-.052a3.74 3.74 0 00.996-2.567c.052-.838-.21-1.623-.681-2.2z"/></g><defs><clipPath id="clip0"><path fill="#fff" transform="translate(.812)" d="M0 0h283.381v44H0z"/></clipPath></defs></svg>