<svg width="92" height="48" fill="none" xmlns="http://www.w3.org/2000/svg"><g clip-path="url(#clip0)" fill="#CBD5E0"><path d="M32.843 41.837c0-.137.12-.256.256-.256h.073c.12 0 .19.06.263.151l2.8 3.57v-3.479c0-.14.112-.256.255-.256.14 0 .25.12.25.256v4.163a.23.23 0 01-.24.241h-.027c-.112 0-.19-.066-.27-.157l-2.859-3.655v3.57c0 .14-.112.256-.256.256a.253.253 0 01-.248-.255v-4.149h.003zM39.56 44.283V41.83c0-.143.118-.263.255-.263.144 0 .263.12.263.263v2.418c0 .995.532 1.555 1.408 1.555.848 0 1.391-.515 1.391-1.52V41.83c0-.143.12-.263.263-.263.14 0 .256.12.256.263v2.41c0 1.346-.771 2.043-1.924 2.043-1.138 0-1.913-.697-1.913-2zM47.435 42.083h-1.338a.242.242 0 01-.245-.239c0-.133.112-.245.245-.245h3.202c.133 0 .245.112.245.245a.242.242 0 01-.245.239h-1.338v3.9c0 .143-.12.262-.263.262a.265.265 0 01-.263-.263v-3.9zM52.068 41.865c0-.143.119-.263.256-.263h1.727c.567 0 1.02.172 1.31.463.225.224.358.547.358.907v.014c0 .757-.515 1.199-1.234 1.339l1.146 1.475c.053.06.084.119.084.193 0 .14-.133.255-.263.255-.105 0-.185-.06-.245-.14l-1.296-1.685h-1.325v1.563c0 .143-.119.262-.262.262a.261.261 0 01-.256-.262v-4.12zm1.937 2.088c.69 0 1.185-.357 1.185-.949v-.014c0-.568-.435-.907-1.181-.907h-1.423v1.87h1.42zM58.462 41.83c0-.143.12-.263.256-.263.144 0 .263.12.263.263v4.152c0 .144-.12.263-.263.263a.261.261 0 01-.256-.263V41.83zM63.136 42.083h-1.339a.242.242 0 01-.245-.239c0-.133.112-.245.245-.245H65c.133 0 .245.112.245.245a.242.242 0 01-.245.239H63.66v3.9c0 .143-.119.262-.263.262a.265.265 0 01-.262-.263v-3.9zM67.817 41.83c0-.143.119-.263.255-.263.144 0 .263.12.263.263v4.152c0 .144-.119.263-.263.263a.263.263 0 01-.255-.263V41.83zM71.064 43.919v-.014c0-1.272.957-2.386 2.358-2.386 1.405 0 2.344 1.1 2.344 2.372v.014c0 1.271-.956 2.386-2.358 2.386-1.401 0-2.344-1.1-2.344-2.372zm4.166 0v-.014c0-1.048-.764-1.903-1.818-1.903-1.055 0-1.805.844-1.805 1.892v.014c0 1.048.764 1.902 1.819 1.902 1.05 0 1.804-.844 1.804-1.891zM78.453 41.837c0-.137.12-.256.256-.256h.074c.119 0 .192.06.262.151l2.8 3.57v-3.479c0-.14.112-.256.255-.256.14 0 .25.12.25.256v4.163a.23.23 0 01-.239.241h-.028c-.112 0-.19-.066-.27-.157l-2.859-3.655v3.57c0 .14-.112.256-.255.256a.253.253 0 01-.25-.255v-4.149h.004zM82.714.133h.031l4.499.021a6.881 6.881 0 01-6.878 6.85h-.031l-4.5-.018A6.882 6.882 0 0182.715.133zM21.032 11.762h6.37v24.07c0 3.892-1.314 6.874-3.893 8.948-2.578 2.074-5.662 3.087-9.302 3.087-5.462 0-9.757-2.123-11.986-6.17l5.56-3.185c1.265 2.376 3.49 3.539 6.626 3.539 4.096 0 6.625-2.225 6.625-6.22v-2.728c-1.92 2.578-4.6 3.843-8.09 3.843-3.59 0-6.572-1.265-9-3.742C1.565 30.674.353 27.591.353 24s1.212-6.625 3.64-9.151c2.428-2.53 5.41-3.791 8.948-3.791 3.49 0 6.17 1.264 8.09 3.843v-3.14zm-2.021 7.333c-1.314-1.314-2.982-1.973-5.056-1.973s-3.742.66-5.108 1.973C7.529 20.36 6.874 22.028 6.874 24c0 4.043 2.982 6.927 7.077 6.927 4.096 0 7.078-2.884 7.078-6.927.003-1.973-.652-3.64-2.018-4.905zM45.351 37.752c-3.742 0-6.926-1.265-9.505-3.844-2.575-2.578-3.84-5.763-3.84-9.505 0-3.742 1.265-6.878 3.84-9.456 2.579-2.579 5.763-3.893 9.505-3.893 3.742 0 6.927 1.314 9.506 3.893 2.578 2.578 3.892 5.714 3.892 9.456 0 3.742-1.314 6.927-3.892 9.505-2.579 2.583-5.764 3.844-9.506 3.844zm0-6.37c1.973 0 3.592-.655 4.905-1.972 1.314-1.318 1.973-2.982 1.973-5.007 0-2.021-.659-3.693-1.973-5.007-1.317-1.314-2.936-1.972-4.905-1.972-1.972 0-3.591.655-4.905 1.972-1.265 1.314-1.92 2.985-1.92 5.007 0 2.025.655 3.69 1.92 5.007 1.318 1.314 2.933 1.972 4.905 1.972zM69.873.133H63.35v36.911h6.523V.134zM82.36 11.766h-6.524v25.282h6.524V11.766zM91.18 1.43c0 .728-.572 1.3-1.318 1.3-.736 0-1.324-.572-1.324-1.3 0-.712.588-1.286 1.324-1.286.747 0 1.318.57 1.318 1.285zm-2.313 0c0 .57.424 1.026 1.002 1.026.564 0 .981-.456.981-1.02 0-.57-.417-1.033-.988-1.033-.57 0-.995.462-.995 1.026zm.792.672h-.298V.816c.12-.024.28-.038.494-.038.242 0 .354.038.445.094a.36.36 0 01.126.28c0 .14-.108.253-.266.298v.014c.126.046.196.14.235.312.038.196.063.274.094.323h-.322c-.038-.046-.063-.165-.102-.312-.024-.14-.101-.203-.266-.203h-.14v.518zm.007-.729h.14c.165 0 .298-.056.298-.189 0-.119-.088-.196-.273-.196a.807.807 0 00-.165.014v.371z"/></g><defs><clipPath id="clip0"><path fill="#fff" transform="translate(.193)" d="M0 0h91.095v48H0z"/></clipPath></defs></svg>