<svg width="189" height="44" fill="none" xmlns="http://www.w3.org/2000/svg"><g clip-path="url(#clip0)"><path fill-rule="evenodd" clip-rule="evenodd" d="M6.311 36.656a19.13 19.13 0 002.022-1.323l.022-.016c.219-.164.429-.326.623-.484h-4.57c.412.605.86 1.195 1.347 1.768l.084.104c.07.083.187.108.282.055a6.59 6.59 0 00.171-.094h.002l.017-.01zm8.345-9.156H1.234c.137.614.302 1.225.496 1.834h11.975c.348-.594.665-1.206.95-1.834zm1.266-3.666H.739c.028.608.083 1.22.166 1.832h14.481c.206-.6.385-1.21.536-1.832zm-3.424 7.332H2.406c.262.62.553 1.232.88 1.834h7.672a20.024 20.024 0 001.538-1.834h.002zm3.963-11H.712V22h15.563c.088-.605.15-1.217.186-1.833zM.712 7.335h15.785V5.5H.712v1.834zm0 3.665h15.785V9.166H.712V11zm0 7.334h15.785V16.5H.712v1.834zm0-3.668h15.785v-1.832H.712v1.832zM42.512 0v22.803c0 11.705-9.358 21.197-20.9 21.197-5.555 0-10.604-2.2-14.346-5.786a21.996 21.996 0 0010.272-13.402c.51-1.857.767-3.773.767-5.698V0h24.207zm29.323 13.428V22.2c0 4.164-.943 5.226-3.401 5.286-2.459-.06-3.408-1.122-3.408-5.286v-8.773h-4.914v9.64c0 5.53 3.594 8.248 8.322 8.248s8.32-2.717 8.32-8.248v-9.64h-4.92zm73.238 8.841v-.267c0-3.481-1.57-5.255-4.266-5.255-2.765 0-4.301 1.84-4.301 5.322v.268c0 3.481 1.706 5.188 4.164 5.188 2.594 0 4.403-1.707 4.403-5.255zm-13.618.169v-.269c0-5.757 3.378-9.137 7.849-9.137 2.868 0 4.642 1.238 5.632 3.013v-2.68h4.915v17.574h-4.915v-2.911c-.921 1.774-3.106 3.28-5.734 3.28-4.334 0-7.747-3.047-7.747-8.87zM184 20.295c-.171-2.644-1.536-3.916-3.891-3.916-2.219 0-3.72 1.439-4.096 3.916H184zm-13.073 2.109v-.268c0-5.523 3.993-9.104 9.182-9.104 4.608 0 8.703 2.644 8.703 8.903v1.34h-12.868c.137 2.912 1.742 4.585 4.438 4.585 2.287 0 3.413-.97 3.72-2.442h4.675c-.58 3.782-3.652 5.89-8.532 5.89-5.393 0-9.318-3.314-9.318-8.904zm-6.105-.134v-.268c0-3.481-1.569-5.255-4.266-5.255-2.764 0-4.301 1.84-4.301 5.322v.268c0 3.481 1.708 5.188 4.165 5.188 2.594 0 4.403-1.707 4.403-5.255h-.001zm-13.618.168v-.269c0-5.757 3.379-9.137 7.851-9.137 2.867 0 4.642 1.238 5.632 3.013V5.5h4.915v25.44h-4.915v-2.912c-.922 1.774-3.106 3.28-5.734 3.28-4.335 0-7.749-3.047-7.749-8.87zm-30.954-9.005h4.948v3.348c1.126-2.343 2.868-3.582 5.768-3.615v4.519c-3.652-.033-5.768 1.137-5.768 4.484v8.77h-4.949V13.434h.001zm-7.435 8.302V21.5c0-2.98-1.603-4.788-4.301-4.788-2.764 0-4.3 1.942-4.3 4.82v.269c0 2.912 1.742 4.719 4.199 4.719 2.594 0 4.402-1.807 4.402-4.786zM99.3 31.308h4.914c.308 1.54 1.434 2.543 3.96 2.543 3.003 0 4.505-1.54 4.505-4.284v-2.645c-.99 1.708-3.106 3.248-5.734 3.248-4.334 0-7.782-3.18-7.782-8.368v-.234c0-5.022 3.412-8.536 7.85-8.536 2.902 0 4.642 1.238 5.666 3.013v-2.612h4.915v16.134c-.033 5.189-3.55 7.833-9.421 7.833-5.768 0-8.396-2.477-8.873-6.092zm-6.48-9.004v-.268c0-3.548-1.775-5.289-4.267-5.289-2.593 0-4.368 1.774-4.368 5.29v.267c0 3.514 1.706 5.221 4.403 5.221 2.73 0 4.232-1.807 4.232-5.221zm-13.414-8.87h4.95v2.744c.99-1.673 3.071-3.146 5.7-3.146 4.368 0 7.782 3.179 7.782 8.97v.268c0 5.791-3.345 9.038-7.783 9.038-2.764 0-4.778-1.34-5.7-3.047v8.637h-4.949V13.433z" fill="#CBD5E0"/></g><defs><clipPath id="clip0"><path fill="#fff" transform="translate(.712)" d="M0 0h188.1v44H0z"/></clipPath></defs></svg>