<svg width="1234" height="696" viewBox="0 0 1234 696" fill="none" xmlns="http://www.w3.org/2000/svg">
<path fill-rule="evenodd" clip-rule="evenodd" d="M596.106 146.023C597.417 129.651 598.732 113.224 602.123 97.3735C609.551 62.6081 627.996 30.5825 653.303 5.79955C672.629 -13.1576 700.203 -32.6817 726.643 -40.0504C751.592 -46.9924 785.267 -40.241 813.574 -34.5657C820.193 -33.2386 826.519 -31.9703 832.372 -30.9497C870.049 -24.3682 907.254 -15.173 943.64 -3.42712C1138.5 59.4753 1313.44 207.081 1313 217C1306.91 351.596 1215.31 435.644 1121.71 521.519C1059.09 578.968 995.587 637.234 956.198 712H2.40869C17.0387 677.278 42.262 629.47 49.2102 620.365C71.2436 591.489 97.2115 573.728 132.433 567.241C172.692 559.809 213.548 555.432 254.467 554.204C260.821 554.013 267.199 553.895 273.584 553.775C306.261 553.166 339.13 552.553 370.016 542.332C406.907 530.114 441.184 500.167 444.867 461.465C446.001 449.481 444.182 437.546 442.359 425.583C440.944 416.296 439.526 406.992 439.485 397.634C439.296 355.279 468.034 325.269 499.919 301.431C504.384 298.092 508.93 294.795 513.489 291.488C538.082 273.651 563.046 255.545 577.571 229.192C591.465 203.991 593.778 175.092 596.106 146.023Z" fill="url(#paint0_radial)"/>
<path d="M602.123 97.3735L603.101 97.5827L603.101 97.5824L602.123 97.3735ZM596.106 146.023L597.103 146.103L597.103 146.103L596.106 146.023ZM653.303 5.79955L654.003 6.51402L654.003 6.51344L653.303 5.79955ZM726.643 -40.0504L726.375 -41.0138L726.374 -41.0137L726.643 -40.0504ZM813.574 -34.5657L813.77 -35.5462L813.77 -35.5462L813.574 -34.5657ZM832.372 -30.9497L832.544 -31.9348L832.543 -31.9348L832.372 -30.9497ZM943.64 -3.42712L943.948 -4.37877L943.948 -4.37877L943.64 -3.42712ZM1313 217L1314 217.045L1314 217.044L1313 217ZM1121.71 521.519L1122.39 522.255L1122.39 522.255L1121.71 521.519ZM956.198 712V713H956.801L957.083 712.466L956.198 712ZM2.40869 712L1.48715 711.612L0.902199 713H2.40869V712ZM49.2102 620.365L50.0052 620.972L50.0052 620.972L49.2102 620.365ZM132.433 567.241L132.615 568.224L132.615 568.224L132.433 567.241ZM254.467 554.204L254.437 553.204L254.437 553.204L254.467 554.204ZM273.584 553.775L273.565 552.776L273.565 552.776L273.584 553.775ZM370.016 542.332L370.331 543.281L370.331 543.281L370.016 542.332ZM444.867 461.465L445.863 461.56L445.863 461.559L444.867 461.465ZM442.359 425.583L443.348 425.432L443.348 425.432L442.359 425.583ZM439.485 397.634L440.485 397.63L440.485 397.629L439.485 397.634ZM499.919 301.431L500.518 302.232L500.518 302.232L499.919 301.431ZM513.489 291.488L514.076 292.297L514.076 292.297L513.489 291.488ZM577.571 229.192L576.695 228.709L576.695 228.709L577.571 229.192ZM601.145 97.1643C597.738 113.09 596.419 129.583 595.109 145.944L597.103 146.103C598.414 129.719 599.726 113.358 603.101 97.5827L601.145 97.1643ZM652.603 5.08508C627.166 29.9958 608.617 62.1938 601.145 97.1645L603.101 97.5824C610.485 63.0224 628.826 31.1691 654.003 6.51402L652.603 5.08508ZM726.374 -41.0137C699.711 -33.5826 671.995 -13.9357 652.603 5.08566L654.003 6.51344C673.264 -12.3796 700.695 -31.7807 726.911 -39.0871L726.374 -41.0137ZM813.77 -35.5462C799.625 -38.3822 784.082 -41.4992 768.95 -43.0344C753.826 -44.5689 739.025 -44.5338 726.375 -41.0138L726.911 -39.087C739.21 -42.509 753.721 -42.5692 768.748 -41.0446C783.768 -39.5209 799.215 -36.4246 813.377 -33.5852L813.77 -35.5462ZM832.543 -31.9348C826.706 -32.9528 820.393 -34.2185 813.77 -35.5462L813.377 -33.5852C819.994 -32.2587 826.333 -30.9877 832.2 -29.9646L832.543 -31.9348ZM943.948 -4.37877C907.517 -16.139 870.266 -25.3453 832.544 -31.9348L832.2 -29.9646C869.831 -23.3911 906.991 -14.207 943.333 -2.47548L943.948 -4.37877ZM1314 217.044C1314.03 216.429 1313.73 215.768 1313.4 215.181C1313.04 214.545 1312.52 213.799 1311.85 212.959C1310.51 211.274 1308.53 209.118 1305.95 206.552C1300.8 201.416 1293.22 194.57 1283.52 186.452C1264.11 170.213 1236.16 148.846 1202.12 125.827C1134.04 79.7923 1041.5 27.1116 943.948 -4.37877L943.333 -2.47548C1040.64 28.9366 1133 81.5096 1201 127.483C1234.99 150.468 1262.88 171.794 1282.23 187.986C1291.91 196.084 1299.45 202.888 1304.54 207.969C1307.09 210.511 1309.01 212.605 1310.28 214.203C1310.92 215.004 1311.37 215.658 1311.66 216.166C1311.81 216.42 1311.9 216.619 1311.95 216.768C1312.01 216.925 1312 216.978 1312 216.956L1314 217.044ZM1122.39 522.255C1215.93 436.432 1307.89 352.117 1314 217.045L1312 216.955C1305.94 351.076 1214.69 434.856 1121.03 520.782L1122.39 522.255ZM957.083 712.466C996.377 637.88 1059.75 579.727 1122.39 522.255L1121.03 520.782C1058.44 578.208 994.797 636.588 955.313 711.534L957.083 712.466ZM2.40869 713H956.198V711H2.40869V713ZM48.4152 619.759C44.877 624.395 36.793 638.71 27.8016 656.117C18.7912 673.562 8.81555 694.219 1.48715 711.612L3.33023 712.388C10.6319 695.059 20.5828 674.451 29.5786 657.035C38.5934 639.582 46.5952 625.44 50.0052 620.972L48.4152 619.759ZM132.252 566.258C96.7518 572.796 70.5767 590.714 48.4152 619.759L50.0052 620.972C71.9105 592.263 97.6713 574.66 132.615 568.224L132.252 566.258ZM254.437 553.204C213.467 554.434 172.56 558.817 132.252 566.258L132.615 568.224C172.823 560.802 213.629 556.43 254.497 555.203L254.437 553.204ZM273.565 552.776C267.181 552.895 260.798 553.014 254.437 553.204L254.497 555.203C260.845 555.013 267.217 554.894 273.603 554.775L273.565 552.776ZM369.702 541.383C338.984 551.548 306.27 552.166 273.565 552.776L273.603 554.775C306.252 554.166 339.276 553.558 370.331 543.281L369.702 541.383ZM443.872 461.37C440.241 499.525 406.387 529.233 369.702 541.383L370.331 543.281C407.427 530.995 442.128 500.808 445.863 461.56L443.872 461.37ZM441.371 425.734C443.197 437.718 444.992 449.53 443.871 461.371L445.863 461.559C447.01 449.431 445.168 437.374 443.348 425.432L441.371 425.734ZM438.485 397.638C438.526 407.082 439.957 416.46 441.371 425.734L443.348 425.432C441.93 416.133 440.525 406.902 440.485 397.63L438.485 397.638ZM499.32 300.63C467.391 324.501 438.293 354.774 438.485 397.638L440.485 397.629C440.298 355.785 468.676 326.037 500.518 302.232L499.32 300.63ZM512.902 290.678C508.344 293.984 503.792 297.286 499.32 300.63L500.518 302.232C504.976 298.898 509.516 295.605 514.076 292.297L512.902 290.678ZM576.695 228.709C562.297 254.833 537.532 272.815 512.902 290.678L514.076 292.297C538.633 274.487 563.796 256.257 578.447 229.675L576.695 228.709ZM595.109 145.944C592.778 175.055 590.467 203.729 576.695 228.709L578.447 229.675C592.462 204.254 594.778 175.13 597.103 146.103L595.109 145.944Z" fill="#2D3748"/>
<path fill-rule="evenodd" clip-rule="evenodd" d="M424.5 623.5C466 617.5 542.315 604 567 518C569.548 509.122 572.096 500.119 574.669 491.032C619.032 334.306 670.495 152.5 851.5 152.5C895.374 152.5 933.238 157.303 968.483 161.773C1087.07 176.816 1176.02 188.098 1364.5 0L1362.38 712H244.314C252.266 697.415 262.456 683.172 275.5 671C312.42 636.549 387.287 627.871 416.086 624.533C419.649 624.12 422.506 623.788 424.5 623.5Z" fill="url(#paint1_radial)"/>
<path d="M567 518L567.961 518.276L567.961 518.276L567 518ZM424.5 623.5L424.643 624.49L424.643 624.49L424.5 623.5ZM574.669 491.032L573.707 490.76L573.707 490.76L574.669 491.032ZM968.483 161.773L968.357 162.766L968.357 162.766L968.483 161.773ZM1364.5 0L1365.5 0.00297614L1365.51 -2.41791L1363.79 -0.70783L1364.5 0ZM1362.38 712V713H1363.38L1363.38 712.003L1362.38 712ZM244.314 712L243.436 711.521L242.63 713H244.314V712ZM275.5 671L274.818 670.269L274.818 670.269L275.5 671ZM416.086 624.533L416.201 625.526L416.201 625.526L416.086 624.533ZM566.039 517.724C541.541 603.07 465.867 616.509 424.357 622.51L424.643 624.49C466.132 618.491 543.088 604.93 567.961 518.276L566.039 517.724ZM573.707 490.76C571.134 499.847 568.586 508.848 566.039 517.724L567.961 518.276C570.51 509.396 573.059 500.391 575.631 491.304L573.707 490.76ZM851.5 151.5C760.571 151.5 702.168 197.206 660.998 262.46C619.869 327.648 595.878 412.433 573.707 490.76L575.631 491.304C597.823 412.906 621.745 328.424 662.689 263.527C703.592 198.697 761.424 153.5 851.5 153.5V151.5ZM968.608 160.781C933.366 156.311 895.445 151.5 851.5 151.5V153.5C895.303 153.5 933.109 158.295 968.357 162.766L968.608 160.781ZM1363.79 -0.70783C1269.6 93.29 1200.38 137.367 1139.99 156.109C1079.6 174.848 1027.92 168.305 968.608 160.781L968.357 162.766C1027.64 170.285 1079.72 176.903 1140.58 158.02C1201.42 139.139 1270.91 94.808 1365.21 0.70783L1363.79 -0.70783ZM1363.38 712.003L1365.5 0.00297614L1363.5 -0.00297614L1361.38 711.997L1363.38 712.003ZM244.314 713H1362.38V711H244.314V713ZM274.818 670.269C261.679 682.528 251.428 696.863 243.436 711.521L245.192 712.479C253.104 697.967 263.232 683.815 276.182 671.731L274.818 670.269ZM415.971 623.539C401.571 625.208 375.594 628.219 348.59 635.13C321.614 642.035 293.466 652.868 274.818 670.269L276.182 671.731C294.454 654.681 322.199 643.95 349.086 637.068C375.946 630.193 401.802 627.195 416.201 625.526L415.971 623.539ZM424.357 622.51C422.381 622.796 419.54 623.125 415.97 623.539L416.201 625.526C419.757 625.114 422.632 624.78 424.643 624.49L424.357 622.51Z" fill="#2D3748"/>
<defs>
<radialGradient id="paint0_radial" cx="0" cy="0" r="1" gradientUnits="userSpaceOnUse" gradientTransform="translate(416.727 325.238) rotate(71.2788) scale(572.982 778.133)">
<stop stop-color="#262F3D"/>
<stop offset="1" stop-color="#171923"/>
</radialGradient>
<radialGradient id="paint1_radial" cx="0" cy="0" r="1" gradientUnits="userSpaceOnUse" gradientTransform="translate(786 351.5) rotate(72.0309) scale(544.562 713.931)">
<stop stop-color="#262F3D"/>
<stop offset="1" stop-color="#171923"/>
</radialGradient>
</defs>
</svg>
