<svg width="1016" height="576" viewBox="0 0 1016 576" fill="none" xmlns="http://www.w3.org/2000/svg">
<path fill-rule="evenodd" clip-rule="evenodd" d="M561.306 85.2759C555.234 71.6718 546.898 60.0551 536.813 50.1861C525.389 39.0492 511.736 30.1397 496.505 23.1149C472.527 12.0122 -217.346 -18.7599 -230.244 19.9623C-231.989 25.1707 -231.443 33.4707 -230.947 41C-230.683 45.0126 -230.433 48.8064 -230.553 51.7967C-231.17 66.8401 -231.376 81.8835 -231.307 96.9269C-231.204 125.528 -230.114 154.104 -229.025 182.68C-227.945 211.005 -226.865 239.331 -226.745 267.681C-226.337 370.956 -238.738 473.842 -260 575H1012.69C1011.99 574.276 1011.28 573.565 1010.55 572.867C991.715 554.86 965.868 549.555 939.751 544.194C925.013 541.169 910.19 538.127 896.491 532.774C858.448 517.902 828.843 483.086 820.336 443.131C817.914 431.752 817.1 420.096 816.287 408.448C815.316 394.523 814.345 380.61 810.627 367.194C797.489 320.008 753.613 288.619 710.939 264.426C705.225 261.186 699.395 257.982 693.521 254.753C657.647 235.036 620.164 214.435 597.702 179.511C586.578 162.234 580.619 142.786 574.656 123.325C570.708 110.439 566.758 97.5476 561.306 85.2759Z" fill="url(#paint0_radial)"/>
<path d="M536.813 50.1861L537.512 49.4714L537.511 49.4701L536.813 50.1861ZM561.306 85.2759L562.22 84.8699L562.219 84.8684L561.306 85.2759ZM496.505 23.1149L496.085 24.0223L496.087 24.0229L496.505 23.1149ZM-230.244 19.9623L-229.296 20.28L-229.295 20.2783L-230.244 19.9623ZM-230.947 41L-231.945 41.0657L-231.945 41.0657L-230.947 41ZM-230.553 51.7967L-229.554 51.8377L-229.554 51.8365L-230.553 51.7967ZM-231.307 96.9269L-230.307 96.9233L-230.307 96.9223L-231.307 96.9269ZM-229.025 182.68L-230.024 182.718L-230.024 182.718L-229.025 182.68ZM-226.745 267.681L-225.745 267.677L-225.745 267.677L-226.745 267.681ZM-260 575L-260.979 574.794L-261.232 576H-260V575ZM1012.69 575V576H1015.04L1013.41 574.307L1012.69 575ZM1010.55 572.867L1011.24 572.144L1011.24 572.144L1010.55 572.867ZM939.751 544.194L939.55 545.174L939.55 545.174L939.751 544.194ZM896.491 532.774L896.127 533.705L896.127 533.706L896.491 532.774ZM820.336 443.131L819.358 443.339L819.358 443.339L820.336 443.131ZM816.287 408.448L817.285 408.378L817.285 408.378L816.287 408.448ZM810.627 367.194L811.591 366.927L811.591 366.926L810.627 367.194ZM710.939 264.426L710.446 265.296L710.446 265.296L710.939 264.426ZM693.521 254.753L694.003 253.877L694.003 253.877L693.521 254.753ZM597.702 179.511L598.543 178.97L598.543 178.97L597.702 179.511ZM574.656 123.325L573.7 123.618L573.7 123.618L574.656 123.325ZM536.113 50.9008C546.113 60.6863 554.375 72.1999 560.392 85.6835L562.219 84.8684C556.093 71.1436 547.683 59.424 537.512 49.4714L536.113 50.9008ZM496.087 24.0229C511.233 31.0085 524.786 39.8576 536.115 50.9021L537.511 49.4701C525.993 38.2408 512.24 29.2708 496.924 22.2068L496.087 24.0229ZM-229.295 20.2783C-228.997 19.3839 -228.156 18.3999 -226.554 17.3754C-224.968 16.3614 -222.751 15.3806 -219.907 14.4443C-214.224 12.5729 -206.209 10.9335 -196.157 9.51503C-176.065 6.67971 -148.006 4.7501 -114.584 3.55698C-47.7497 1.1711 40.4199 1.73383 128.952 3.85396C217.48 5.97401 306.355 9.65091 374.593 13.4914C408.712 15.4118 437.667 17.3727 458.837 19.1998C469.423 20.1135 478.053 20.9929 484.405 21.8161C487.583 22.2278 490.179 22.624 492.161 23.0014C494.175 23.3852 495.462 23.7335 496.085 24.0223L496.926 22.2074C496.051 21.8023 494.538 21.4183 492.535 21.0367C490.498 20.6489 487.858 20.2468 484.662 19.8327C478.269 19.0042 469.606 18.1219 459.009 17.2072C437.811 15.3776 408.834 13.4155 374.705 11.4946C306.445 7.65282 217.549 3.97508 129 1.85453C40.4538 -0.26593 -47.762 -0.829737 -114.656 1.55826C-148.098 2.75208 -176.239 4.68451 -196.436 7.53465C-206.53 8.95892 -214.682 10.618 -220.533 12.5446C-223.456 13.5073 -225.848 14.5504 -227.631 15.6905C-229.398 16.8201 -230.685 18.1205 -231.193 19.6462L-229.295 20.2783ZM-229.95 40.9343C-230.198 37.1621 -230.456 33.2414 -230.436 29.6162C-230.417 25.9766 -230.117 22.7292 -229.296 20.28L-231.192 19.6445C-232.117 22.4038 -232.416 25.9106 -232.436 29.6055C-232.456 33.3147 -232.193 37.3086 -231.945 41.0657L-229.95 40.9343ZM-229.554 51.8365C-229.432 48.7818 -229.687 44.9283 -229.95 40.9343L-231.945 41.0657C-231.68 45.097 -231.435 48.8311 -231.552 51.7568L-229.554 51.8365ZM-230.307 96.9223C-230.376 81.8909 -230.17 66.863 -229.554 51.8377L-231.552 51.7557C-232.17 66.8171 -232.376 81.876 -232.307 96.9314L-230.307 96.9223ZM-228.025 182.642C-229.115 154.063 -230.204 125.505 -230.307 96.9233L-232.307 96.9305C-232.204 125.552 -231.114 154.145 -230.024 182.718L-228.025 182.642ZM-225.745 267.677C-225.865 239.307 -226.945 210.964 -228.025 182.642L-230.024 182.718C-228.944 211.046 -227.864 239.354 -227.745 267.686L-225.745 267.677ZM-259.021 575.206C-237.747 473.991 -225.337 371.034 -225.745 267.677L-227.745 267.685C-227.338 370.877 -239.728 473.693 -260.979 574.794L-259.021 575.206ZM-260 576H1012.69V574H-260V576ZM1009.86 573.59C1010.58 574.278 1011.28 574.979 1011.97 575.693L1013.41 574.307C1012.71 573.574 1011.98 572.852 1011.24 572.144L1009.86 573.59ZM939.55 545.174C965.728 550.547 991.268 555.816 1009.86 573.59L1011.24 572.144C992.162 553.904 966.008 548.563 939.952 543.215L939.55 545.174ZM896.127 533.706C909.919 539.094 924.828 542.152 939.55 545.174L939.952 543.215C925.198 540.186 910.46 537.159 896.855 531.843L896.127 533.706ZM819.358 443.339C827.935 483.624 857.771 518.711 896.127 533.705L896.855 531.843C859.125 517.093 829.751 482.549 821.314 442.922L819.358 443.339ZM815.29 408.517C816.102 420.154 816.919 431.88 819.358 443.339L821.314 442.922C818.909 431.624 818.099 420.038 817.285 408.378L815.29 408.517ZM809.664 367.461C813.35 380.763 814.317 394.576 815.29 408.517L817.285 408.378C816.314 394.471 815.34 380.456 811.591 366.927L809.664 367.461ZM710.446 265.296C753.122 289.49 796.645 320.706 809.664 367.462L811.591 366.926C798.333 319.31 754.105 287.748 711.433 263.556L710.446 265.296ZM693.04 255.63C698.914 258.859 704.739 262.06 710.446 265.296L711.433 263.556C705.712 260.312 699.875 257.105 694.003 253.877L693.04 255.63ZM596.861 180.052C619.484 215.226 657.212 235.938 693.04 255.63L694.003 253.877C658.083 234.135 620.844 213.644 598.543 178.97L596.861 180.052ZM573.7 123.618C579.656 143.057 585.65 162.64 596.861 180.053L598.543 178.97C587.506 161.828 581.582 142.516 575.612 123.032L573.7 123.618ZM560.392 85.682C565.815 97.8891 569.749 110.722 573.7 123.618L575.612 123.032C571.667 110.156 567.701 97.2061 562.22 84.8699L560.392 85.682Z" fill="#2D3748"/>
<defs>
<radialGradient id="paint0_radial" cx="0" cy="0" r="1" gradientUnits="userSpaceOnUse" gradientTransform="translate(586.982 359.163) rotate(75.6814) scale(544.741 583.174)">
<stop stop-color="#262F3D"/>
<stop offset="1" stop-color="#171923"/>
</radialGradient>
</defs>
</svg>
