<svg width="259" height="250" fill="none" xmlns="http://www.w3.org/2000/svg"><path d="M228.493 2.923H2.406v152.301h226.087V2.923z" fill="#2D3748"/><path d="M228.546 156.099H2.464a.816.816 0 01-.818-.817V2.981c0-.45.363-.817.818-.817h226.082c.456 0 .818.366.818.817v152.301c0 .45-.362.817-.818.817zM3.282 154.464H227.73V3.799H3.282v150.665z" fill="#1A202C"/><path d="M4.964 152.783H0v4.957h4.964v-4.957zM4.964.52H0v4.957h4.964V.52z" fill="#1A202C"/><path d="M231.048 152.783h-4.965v4.957h4.965v-4.957z" fill="#BA9BC9"/><path d="M231.048.52h-4.965v4.957h4.965V.52z" fill="#1A202C"/><path d="M31.017 89.365a.826.826 0 01-.76-.508c-.117-.286-2.804-7.039.07-12.815 1.356-2.708 3.693-4.725 6.964-6.018-.409-2.102-.339-4.325.514-6.213 1.893-4.219 5.48-4.88 10.037-5.717 1.566-.288 3.19-.586 4.955-1.058 5.27-1.41 4.346-8.123 4.311-8.407a.815.815 0 01.69-.926.815.815 0 01.934.687c.433 2.912-.164 8.795-5.515 10.225-1.823.488-3.552.805-5.083 1.088-4.393.807-7.302 1.341-8.833 4.776-.666 1.474-.748 3.266-.444 5.006.222-.066.456-.13.678-.192 4.405-1.173 6.683.428 7.653 1.486 1.262 1.368 1.682 3.309 1.098 4.943-.514 1.4-1.67 2.32-3.19 2.524-1.974.265-3.926-.753-5.503-2.857-.76-1.025-1.426-2.335-1.881-3.766-2.793 1.142-4.779 2.868-5.924 5.147-2.547 5.122-.035 11.408-.012 11.47a.82.82 0 01-.444 1.066.863.863 0 01-.315.06zm8.237-18.29c.386 1.26.97 2.425 1.66 3.336.689.932 2.15 2.46 3.96 2.215.912-.12 1.578-.64 1.87-1.46.386-1.054.082-2.372-.76-3.283-.724-.788-2.465-1.962-6.029-1.01-.233.064-.479.131-.7.203z" fill="#4A5568"/><path d="M68.604 63.576l-5.655-1.513c.035-.033 4.136-4.128 4.136-4.128l1.52 5.64zm-5.55-1.541l5.468 1.462-1.46-5.456-4.008 3.994z" fill="#BA9BC9"/><path d="M68.56 64.358c-.07 0-.14-.01-.21-.027l-5.55-1.488a.84.84 0 01-.585-.578.819.819 0 01.21-.789l4.067-4.061a.833.833 0 01.794-.212c.28.077.502.297.573.578l1.495 5.549a.848.848 0 01-.21.789.833.833 0 01-.584.239zm-3.973-2.728l2.816.755-.748-2.814-2.068 2.06z" fill="#A0AEC0"/><path d="M204.555 88.043a.799.799 0 01-.607-.273.81.81 0 01.058-1.152c.164-.147 3.996-3.697 2.746-10.576-.701-3.831-1.846-6.77-3.412-8.78-.187.429-.397.86-.643 1.295-2.477 4.44-6.461 7.152-10.656 7.253-2.676.084-5.036-1.004-6.192-2.86-.772-1.248-.877-2.753-.269-4.353.899-2.407 3.283-4.634 5.795-5.412 4.207-1.3 7.724-1.115 10.458.542.257.15.49.313.736.487.748-4.215-1.391-7.892-4.066-10.198-5.667-4.883-13.928-4.313-14.29-4.278a.837.837 0 01-.865-.472.808.808 0 01.409-1.08c.432-.195 9.616-.744 15.821 4.593 3.12 2.686 5.772 7.381 4.381 12.678 2.092 2.226 3.541 5.623 4.394 10.292 1.437 7.818-3.062 11.916-3.26 12.088a.81.81 0 01-.538.206zm-8.039-24.09c-1.402 0-2.944.265-4.65.792-2.033.629-4.031 2.489-4.756 4.423-.292.771-.502 1.905.129 2.918.841 1.34 2.64 2.12 4.767 2.09 3.61-.086 7.069-2.485 9.266-6.415.339-.613.619-1.22.83-1.819a7.915 7.915 0 00-1.11-.819c-1.297-.78-2.781-1.17-4.476-1.17z" fill="#4A5568"/><path d="M60.016 217.028l9.745 28.107H50.283l9.733-28.107z" fill="#1A202C"/><path fill-rule="evenodd" clip-rule="evenodd" d="M41.241 28.342a6.158 6.158 0 016.17 6.154 6.16 6.16 0 01-6.17 6.158 6.156 6.156 0 110-12.312zM162.174 37.448a3.599 3.599 0 013.599 3.594 3.598 3.598 0 01-3.599 3.596 3.597 3.597 0 01-3.599-3.596 3.598 3.598 0 013.599-3.594z" fill="#A0AEC0"/><path d="M170.671 29.257c-.491-.016-.841-.395-.829-.846.011-.045.128-4.666-2.793-8.14-.689-.822-1.683-1.366-2.863-1.594.105 1.56-.21 3.3-.946 5.207-1.262 3.298-3.377 3.942-4.51 4.033-1.8.146-3.634-.846-4.569-2.463-.818-1.412-.783-2.973.117-4.286 1.577-2.317 4.709-3.996 7.852-4.221a5.52 5.52 0 00-.596-1.082c-3.015-4.269-11.649-4.096-11.743-4.096-.374-.007-.829-.344-.841-.796a.82.82 0 01.794-.837c.398-.015 9.593-.199 13.122 4.783a7.231 7.231 0 011.016 2.058c1.823.209 3.366.981 4.417 2.244 3.342 3.967 3.19 9.037 3.178 9.25a.808.808 0 01-.806.786zm-8.144-10.697c-2.816.14-5.55 1.556-6.894 3.53-.724 1.055-.35 2.047-.058 2.544.619 1.064 1.858 1.729 3.026 1.653 1.309-.104 2.419-1.165 3.12-2.99.678-1.777.946-3.359.806-4.737z" fill="#4A5568"/><path fill-rule="evenodd" clip-rule="evenodd" d="M31.4 179.134s7.022-1.771 7.618-10.388c.643-9.402-7.618-25.986-11.135-26.204-3.003-.185-10.411 15.33-8.238 26.093 1.648 8.104 8.296 10.832 8.296 10.832l3.459-.333z" fill="#1A202C"/><path d="M27.867 180.343a.864.864 0 01-.315-.062c-.293-.118-7.07-2.99-8.787-11.425-1.776-8.826 2.723-21.209 6.497-25.527.946-1.088 1.822-1.596 2.605-1.544.865.053 1.823.686 2.921 1.933 3.996 4.55 9.523 17.113 8.974 25.143-.631 9.103-8.156 11.105-8.226 11.124a.806.806 0 01-.993-.589.815.815 0 01.584-.994c.269-.068 6.45-1.762 7-9.653.513-7.511-4.85-19.709-8.577-23.954-1.122-1.275-1.683-1.373-1.788-1.379-.14.029-.55.158-1.274.987-3.143 3.608-7.851 15.513-6.11 24.13 1.53 7.587 7.735 10.212 7.793 10.236.42.173.62.65.456 1.067a.839.839 0 01-.76.507z" fill="#718096"/><path d="M32.713 233.394a.811.811 0 01-.806-.736c-.035-.331-3.284-33.185-3.448-54.005-.081-10.897-.946-22.518-1.063-23.201-.14-.431.117-.857.55-.989.432-.138.9.143 1.028.573.175.567 1.04 13.108 1.122 23.604.163 20.747 3.4 53.526 3.435 53.854a.814.814 0 01-.818.9z" fill="#718096"/><path fill-rule="evenodd" clip-rule="evenodd" d="M40.355 210.935s7.21-.699 9.09-9.13c2.057-9.195 1.566-26.267-1.331-28.896-1.776-1.604-20.133 10.391-20.624 25.386-.268 8.26 9.383 12.449 9.383 12.449l3.482.191z" fill="#1A202C"/><path d="M40.413 211.813a.81.81 0 01-.806-.736.815.815 0 01.725-.894c.269-.028 6.648-.775 8.377-8.497 2.069-9.277 1.438-25.829-1.086-28.112-.409-.054-2.851.883-6.403 3.627-2.921 2.262-12.502 10.475-12.853 21.18-.257 7.6 8.81 11.634 8.892 11.674.42.179.608.661.432 1.074a.819.819 0 01-1.075.425c-.42-.181-10.177-4.511-9.885-13.227.42-12.848 13.542-23.517 18.952-25.802 1.496-.636 2.454-.686 3.038-.161 3.459 3.13 3.505 21.052 1.577 29.679-1.986 8.906-9.72 9.758-9.803 9.765a.561.561 0 01-.081.005z" fill="#718096"/><path d="M34.527 241.861a.813.813 0 01-.818-.79c-.011-.115-.362-11.695 2.617-32.34 1.391-9.539 3.868-17.885 7.607-25.518a.825.825 0 011.098-.375.812.812 0 01.374 1.092c-3.657 7.478-6.099 15.667-7.454 25.035-2.956 20.502-2.617 31.937-2.606 32.051a.823.823 0 01-.794.845h-.024z" fill="#718096"/><path fill-rule="evenodd" clip-rule="evenodd" d="M25.538 211.326s11.38-4.443 3.985-20.583c-6.941-15.124-19.058-22.49-20.343-22.003-1.285.49-7.852 27.292-2.29 36.76 6.216 10.569 15.377 7.027 15.377 7.027l3.271-1.201z" fill="#1A202C"/><path d="M18.687 213.934c-3.47 0-8.565-1.334-12.468-7.977-4.837-8.229-.876-29.284 1.45-35.897.537-1.515.852-1.886 1.25-2.039 2.208-.868 14.523 7.505 21.37 22.426 2.77 6.028 3.319 11.194 1.624 15.355-1.88 4.66-5.877 6.264-6.052 6.331a.817.817 0 01-.596-1.522c.035-.014 3.54-1.444 5.153-5.45 1.495-3.724.946-8.447-1.613-14.034-6.52-14.207-17.14-20.914-19.22-21.504-1.636 3.063-6.965 26.996-1.952 35.506 5.795 9.857 14.29 6.717 14.372 6.68a.814.814 0 011.052.467.818.818 0 01-.468 1.058c-.035.014-1.612.6-3.902.6z" fill="#718096"/><path d="M29.79 241.03a.799.799 0 01-.795-.651c-.047-.19-3.996-19.135-6.38-28.666-2.384-9.517-7.443-24.184-7.501-24.332a.823.823 0 01.514-1.039.803.803 0 011.028.506c.058.148 5.153 14.884 7.548 24.468 2.395 9.563 6.345 28.54 6.392 28.73a.828.828 0 01-.807.984z" fill="#718096"/><path fill-rule="evenodd" clip-rule="evenodd" d="M20.888 228.916h23.836c.912 0 1.636.73 1.636 1.633l-2.676 16.887c0 .901-.584 1.634-1.308 1.634H23.283c-.724 0-1.309-.733-1.309-1.634l-2.722-16.887c0-.903.725-1.633 1.636-1.633z" fill="#1A202C"/><path d="M42.422 249.946H23.33c-1.169 0-2.127-1.1-2.127-2.451l-2.71-16.757c-.012-1.482 1.086-2.582 2.441-2.582H44.77c1.356 0 2.454 1.1 2.454 2.451l-2.675 17.015c.011 1.224-.947 2.324-2.127 2.324zm-21.488-20.155a.815.815 0 00-.817.816l2.71 16.758c.012.598.27.947.503.947h19.092c.234 0 .49-.349.49-.817L45.6 230.48c-.012-.322-.374-.689-.83-.689H20.934z" fill="#718096"/><path fill-rule="evenodd" clip-rule="evenodd" d="M18.998 224.995H46.55c.806 0 1.472.732 1.472 1.635l1.694 4.52c0 .903-.736 1.635-1.635 1.635H17.467c-.9 0-1.635-.732-1.635-1.635l1.694-4.52c0-.903.654-1.635 1.472-1.635z" fill="#1A202C"/><path d="M48.139 233.533H17.526a2.455 2.455 0 01-2.454-2.452c0-.098.012-.193.047-.285l1.647-4.395c.082-1.279 1.075-2.292 2.29-2.292h27.552c1.215 0 2.208 1.013 2.279 2.292l1.647 4.395a.8.8 0 01.059.285 2.462 2.462 0 01-2.454 2.452zm-31.42-2.329a.815.815 0 00.807.694h30.613a.824.824 0 00.806-.694l-1.636-4.358a.79.79 0 01-.047-.285c0-.444-.303-.817-.654-.817H19.056c-.362 0-.654.366-.654.817a.802.802 0 01-.059.285l-1.623 4.358z" fill="#718096"/><path fill-rule="evenodd" clip-rule="evenodd" d="M185.246 93.598h64.813c4.522 0 8.191 3.658 8.191 8.17v130.547c0 4.512-3.669 8.17-8.191 8.17h-64.813c-4.522 0-8.18-3.658-8.18-8.17V101.768c0-4.512 3.658-8.17 8.18-8.17z" fill="#4A5568"/><path d="M249.991 241.235h-64.813c-4.966 0-8.997-4.032-8.997-8.988V101.701c0-4.956 4.031-8.988 8.997-8.988h64.813c4.966 0 9.009 4.032 9.009 8.988v130.546c0 4.956-4.043 8.988-9.009 8.988zM185.178 94.347c-4.066 0-7.361 3.3-7.361 7.354v130.546c0 4.055 3.295 7.354 7.361 7.354h64.813c4.067 0 7.373-3.299 7.373-7.354V101.701c0-4.054-3.306-7.354-7.373-7.354h-64.813z" fill="#4A5568"/><path fill-rule="evenodd" clip-rule="evenodd" d="M188.931 98.15h56.95a8.171 8.171 0 018.179 8.173V222.21c0 4.512-3.657 8.17-8.179 8.17h-56.95c-4.522 0-8.191-3.658-8.191-8.17V106.323c0-4.515 3.669-8.172 8.191-8.172z" fill="#1A202C"/><path d="M245.812 231.13h-56.95c-4.966 0-9.009-4.032-9.009-8.988V106.256c0-4.957 4.043-8.99 9.009-8.99h56.95c4.965 0 8.997 4.033 8.997 8.99v115.886c0 4.956-4.032 8.988-8.997 8.988zM188.862 98.9c-4.067 0-7.373 3.301-7.373 7.356v115.886c0 4.054 3.306 7.354 7.373 7.354h56.95c4.066 0 7.361-3.3 7.361-7.354V106.256c0-4.055-3.295-7.356-7.361-7.356h-56.95z" fill="#1A202C"/><path d="M242.973 105.703a3.243 3.243 0 013.237 3.229v9.75a3.241 3.241 0 01-3.237 3.228h-9.768a3.23 3.23 0 01-3.225-3.228v-9.75a3.232 3.232 0 013.225-3.229h9.768zm0-1.102h-9.768a4.341 4.341 0 00-4.335 4.331v9.75a4.342 4.342 0 004.335 4.331h9.768a4.334 4.334 0 004.335-4.331v-9.75a4.334 4.334 0 00-4.335-4.331z" fill="#1A202C"/><path d="M189.785 105.101h9.768a3.858 3.858 0 013.858 3.858v9.751a3.857 3.857 0 01-3.858 3.857h-9.768a3.857 3.857 0 01-3.858-3.857v-9.751a3.858 3.858 0 013.858-3.858zM211.835 105.101h9.768a3.859 3.859 0 013.858 3.858v9.751a3.857 3.857 0 01-3.858 3.857h-9.768a3.86 3.86 0 01-3.871-3.857v-9.751a3.861 3.861 0 013.871-3.858zM189.785 127.105h9.768a3.858 3.858 0 013.858 3.858v9.75a3.86 3.86 0 01-3.858 3.86h-9.768a3.86 3.86 0 01-3.858-3.86v-9.75a3.858 3.858 0 013.858-3.858zM211.835 127.105h9.768a3.858 3.858 0 013.858 3.858v9.75a3.86 3.86 0 01-3.858 3.86h-9.768a3.863 3.863 0 01-3.871-3.86v-9.75a3.861 3.861 0 013.871-3.858zM233.228 127.105h9.769a3.858 3.858 0 013.858 3.858v9.75a3.86 3.86 0 01-3.858 3.86h-9.769a3.86 3.86 0 01-3.858-3.86v-9.75a3.858 3.858 0 013.858-3.858zM189.785 148.984h9.768a3.857 3.857 0 013.858 3.857v9.753a3.857 3.857 0 01-3.858 3.857h-9.768a3.857 3.857 0 01-3.858-3.857v-9.753a3.857 3.857 0 013.858-3.857zM233.228 148.984h9.769a3.857 3.857 0 013.858 3.857v9.753a3.857 3.857 0 01-3.858 3.857h-9.769a3.857 3.857 0 01-3.858-3.857v-9.753a3.857 3.857 0 013.858-3.857z" stroke="#4A5568"/><path d="M189.785 148.984h9.768a3.859 3.859 0 013.858 3.857v9.754a3.857 3.857 0 01-3.858 3.856h-9.768a3.857 3.857 0 01-3.858-3.856v-9.754a3.859 3.859 0 013.858-3.857zM211.835 148.984h9.768a3.86 3.86 0 013.858 3.857v9.754a3.857 3.857 0 01-3.858 3.856h-9.768a3.86 3.86 0 01-3.871-3.856v-9.754a3.862 3.862 0 013.871-3.857zM233.228 148.984h9.769a3.86 3.86 0 013.858 3.857v9.754a3.857 3.857 0 01-3.858 3.856h-9.769a3.857 3.857 0 01-3.858-3.856v-9.754a3.86 3.86 0 013.858-3.857zM189.785 170.862h9.768a3.858 3.858 0 013.858 3.859v9.751a3.857 3.857 0 01-3.858 3.856h-9.768a3.857 3.857 0 01-3.858-3.856v-9.751a3.858 3.858 0 013.858-3.859zM233.228 170.862h9.769a3.86 3.86 0 013.858 3.859v9.751a3.857 3.857 0 01-3.858 3.856h-9.769a3.857 3.857 0 01-3.858-3.856v-9.751a3.86 3.86 0 013.858-3.859z" stroke="#4A5568"/><path d="M189.785 170.989h9.768a3.859 3.859 0 013.858 3.858v9.751a3.86 3.86 0 01-3.858 3.86h-9.768a3.86 3.86 0 01-3.858-3.86v-9.751a3.859 3.859 0 013.858-3.858zM211.835 170.989h9.768a3.86 3.86 0 013.858 3.858v9.751a3.86 3.86 0 01-3.858 3.86h-9.768a3.863 3.863 0 01-3.871-3.86v-9.751a3.862 3.862 0 013.871-3.858zM233.228 170.989h9.769a3.86 3.86 0 013.858 3.858v9.751a3.86 3.86 0 01-3.858 3.86h-9.769a3.86 3.86 0 01-3.858-3.86v-9.751a3.86 3.86 0 013.858-3.858zM189.785 192.867h9.768a3.858 3.858 0 013.858 3.858v9.749a3.86 3.86 0 01-3.858 3.86h-9.768a3.86 3.86 0 01-3.858-3.86v-9.749a3.858 3.858 0 013.858-3.858zM211.835 192.867h9.768a3.858 3.858 0 013.858 3.858v9.749a3.86 3.86 0 01-3.858 3.86h-9.768a3.862 3.862 0 01-3.871-3.86v-9.749a3.861 3.861 0 013.871-3.858zM233.228 192.867h9.769a3.858 3.858 0 013.858 3.858v9.749a3.86 3.86 0 01-3.858 3.86h-9.769a3.86 3.86 0 01-3.858-3.86v-9.749a3.858 3.858 0 013.858-3.858z" stroke="#4A5568"/><path fill-rule="evenodd" clip-rule="evenodd" d="M68.468 170.235H199.58c4.51 0 8.179 3.659 8.179 8.171v61.156c0 4.513-3.669 8.171-8.179 8.171H68.469c-4.511 0-8.18-3.658-8.18-8.171v-61.156c0-4.512 3.669-8.171 8.18-8.171z" fill="#A0AEC0"/><path d="M199.637 248.482H68.526c-4.954 0-8.997-4.032-8.997-8.987v-61.156c0-4.956 4.043-8.988 8.997-8.988h131.111c4.954 0 8.997 4.032 8.997 8.988v61.156c0 4.955-4.043 8.987-8.997 8.987zM68.526 170.985c-4.055 0-7.361 3.299-7.361 7.354v61.156c0 4.054 3.306 7.354 7.36 7.354h131.112c4.054 0 7.361-3.3 7.361-7.354v-61.156c0-4.055-3.307-7.354-7.361-7.354H68.526z" fill="#4A5568"/><mask id="a" maskUnits="userSpaceOnUse" x="60" y="170" width="148" height="78"><path fill-rule="evenodd" clip-rule="evenodd" d="M68.468 170.235H199.58c4.51 0 8.179 3.659 8.179 8.171v61.156c0 4.513-3.669 8.171-8.179 8.171H68.469c-4.511 0-8.18-3.658-8.18-8.171v-61.156c0-4.512 3.669-8.171 8.18-8.171z" fill="#A0AEC0"/></mask><g mask="url(#a)"><path d="M215.796 167.327H49.776v15.736h166.02v-15.736z" fill="#1A202C"/></g><path fill-rule="evenodd" clip-rule="evenodd" d="M182.59 174.03c1.157 0 2.103.939 2.103 2.096 0 1.16-.946 2.099-2.103 2.099a2.096 2.096 0 01-2.103-2.099c0-1.157.934-2.096 2.103-2.096zM190.454 174.03c1.157 0 2.103.939 2.103 2.096 0 1.16-.946 2.099-2.103 2.099a2.107 2.107 0 01-2.115-2.099c0-1.157.947-2.096 2.115-2.096zM197.915 174.03c1.157 0 2.104.939 2.104 2.096a2.104 2.104 0 01-4.207 0c0-1.157.935-2.096 2.103-2.096z" fill="#CBD5E0"/><path fill-rule="evenodd" clip-rule="evenodd" d="M153.392 188.826h41.083a5.453 5.453 0 015.456 5.447v18.796a5.451 5.451 0 01-5.456 5.448h-41.083a5.451 5.451 0 01-5.456-5.448v-18.796a5.453 5.453 0 015.456-5.447z" fill="#4A5568"/><path fill-rule="evenodd" clip-rule="evenodd" d="M183.133 221.707c5.585 0 10.119 4.523 10.119 10.106 0 5.581-4.534 10.105-10.119 10.105-5.597 0-10.119-4.524-10.119-10.105 0-5.583 4.522-10.106 10.119-10.106z" fill="#1A202C"/><path d="M173.122 242.223l-12.141-10.166 14.886-5.418-2.745 15.584z" fill="#2D3748"/><path d="M141.821 194.634H68.326a.822.822 0 01-.818-.817c0-.451.374-.817.818-.817h73.495c.444 0 .818.366.818.817a.822.822 0 01-.818.817zM106.406 202.979h-38.08a.822.822 0 01-.818-.816c0-.452.374-.817.818-.817h38.08c.456 0 .818.365.818.817a.814.814 0 01-.818.816zM141.902 202.979h-30.006a.82.82 0 01-.817-.816c0-.452.373-.817.817-.817h30.006c.456 0 .818.365.818.817a.814.814 0 01-.818.816zM141.821 211.327H68.326a.823.823 0 01-.818-.818c0-.45.374-.817.818-.817h73.495c.444 0 .818.367.818.817a.823.823 0 01-.818.818zM141.821 220.053H68.326a.822.822 0 01-.818-.816c0-.452.374-.818.818-.818h73.495c.444 0 .818.366.818.818a.822.822 0 01-.818.816zM141.908 228.4h-14.559a.815.815 0 01-.818-.818c0-.451.362-.816.818-.816h14.559a.816.816 0 110 1.634zM141.821 236.746H68.326a.822.822 0 01-.818-.816c0-.452.374-.818.818-.818h73.495c.444 0 .818.366.818.818 0 .45-.374.816-.818.816zM118.129 228.4H68.073a.815.815 0 01-.818-.818c0-.451.363-.816.818-.816h50.056c.456 0 .818.365.818.816a.815.815 0 01-.818.818z" fill="#4A5568"/><path d="M173.76 196.92l6.964 12.039h-13.916l6.952-12.039z" fill="#A0AEC0"/><path fill-rule="evenodd" clip-rule="evenodd" d="M87.709 232.254l.864-9.698s3.74 1.67 4.697-5.503c.807-6.112-.981-6.971-.981-6.971l10.75-39.985 27.271-.873s21.383 9.567 31.922 3.324c10.539-6.243 10.808-15.507 10.259-22.934-.561-7.425-4.37-20.862-4.37-20.862s3.996.81 7.688-1.581c2.255-1.459 3.622-4.11 4.312-7.518.468-2.313-2.965-11.094-6.736-20.738-1.785-4.568-3.647-9.33-5.206-13.69-4.336-12.1-9.184-13.477-13.323-14.653a41.808 41.808 0 01-1.469-.436c-2.952-.961-8.179-.536-12.309-.2-2.05.167-3.829.311-4.926.254-3.306-.173-4.311-5.775-4.311-5.775l.49-3.975s2.852-2.317 4.803-5.829c1.939-3.513 1.881-6.106-.386-12.692-2.016-5.857-9.039-7.068-12.862-7.727a47.304 47.304 0 01-1.264-.228c-2.528-.51-3.517.101-5.19 1.136-.485.3-1.027.635-1.681.99-2.304 1.241-6.097 1.523-8.217 1.681-.568.042-1.015.076-1.282.116-1.262.189.981 3.867.981 3.867s-4.323 2.063-5.071 2.614c-.759.553-.011 1.198 1.695 2.562 1.694 1.364 5.129.925 5.129.925l-.713 2.67 2.232 4.086s-.035.355-.654 1.634c-.608 1.278.28 4.63.28 4.63s-2.068 3.163-2.021 6.973c.046 3.81 5.129 4.794 5.129 4.794s-.794.796-4.907 3.485c-4.125 2.693-8.46 12.258-8.46 12.258s-11.334 36.388-14.021 37.261l-.516.165c-2.682.856-6.506 2.076-8.984 5.882-2.629 4.053-16.09 31.266-16.09 31.266s-3.247 3.477-4.965 7.083c-1.718 3.608-.55 6.864-.55 6.864l-4.357 6.265-7.046 2.832s-11.24-1.951-13.414-1.689c-2.173.264-3.412 2.034-3.926 5.229-.526 3.198 4.452 8.281 10.142 11.551 5.69 3.269 23.077 5.12 23.077 5.12L70.03 184.75s.83-.043 3.003-.543c2.162-.502 3.05-6.81 3.05-6.81l-4.148 29.416s-.094.847-1.204 1.743c-1.061.865-1.403 6.477-1.509 8.221l-.01.168c-.105 1.517.923 2.996.923 2.996l-1.53 10.514-2.454 4.629s-7.244 1.766-12.222 4.032c-4.977 2.267-5.503 9.152-5.503 9.152l39.388.272s.654-5.132.818-8.878c.163-3.749-.923-7.408-.923-7.408zM116.5 123.5l-2.5-7 4 .5 1.5 6.5h-3z" fill="#A0AEC0"/><path fill-rule="evenodd" clip-rule="evenodd" d="M120.71 51.485c.631 0 1.145.514 1.145 1.145v1.2a1.145 1.145 0 01-2.291 0v-1.2c0-.631.515-1.145 1.146-1.145z" fill="#4A5568"/><path fill-rule="evenodd" clip-rule="evenodd" d="M120.846 131.94l21.826 6.155 28.37 1.526-1.531-9.806s11.042-2.545 10.049-10.678c-1.005-8.131-12.514-39.317-15.225-42.598-2.722-3.282-7.349-6.73-12.28-6.92-4.919-.189-10.633.219-10.633.219s-1.414 8.21-9.99 9.642c-8.577 1.432-10.037 1.382-10.797-1.143-.759-2.526.877-6.755.877-6.755s-5.55.588-7.432 1.415c-1.869.83-8.167 4.083-11.836 11.387-3.669 7.3-3.704 7.463-3.704 7.463l10.259 27.073 3.155-4.467s-1.25-.94-.21-5.121c1.028-4.181 4.475-8.662 4.475-8.662l-1.262-.543s-4.429 3.561-5.995 3.159c-1.577-.404-.572-2.534 1.905-5.013 2.477-2.478 3.879-2.982 6.649-1.524 2.78 1.456 13.156 8.661 13.156 8.661l30.228 5.994s4.008 2.006 4.639 8.223c.619 6.219-1.262 8.771-1.262 8.771l-30.766-10.186s-3.037 1.755-6.274-.053c-3.248-1.81-5.246-3.706-5.246-3.706l-4.581 2.505 1.473 6.158 1.963 8.824z" fill="#1A202C"/><path fill-rule="evenodd" clip-rule="evenodd" d="M119.5 115h3l6 3.43-10.845-.111L119.5 115zM124 100.5l28.568-1.463L158 110.5l-26.5-5-7.5-5z" fill="#fff"/><path fill-rule="evenodd" clip-rule="evenodd" d="M149.076 92.739l18.496-8.879 6.006 14.108-18.929 7.301-5.573-12.53zM98.74 90.69l14.301 6.483-4.541 5.327 2 .5 5-2.5-1.5 3.5-7.011 10.604-12.503-12.911 4.254-11.004z" fill="#fff"/><path fill-rule="evenodd" clip-rule="evenodd" d="M112.983 52.244c.631 0 1.145.512 1.145 1.144v1.199a1.145 1.145 0 01-2.29 0v-1.2c0-.63.514-1.143 1.145-1.143z" fill="#4A5568"/><path fill-rule="evenodd" clip-rule="evenodd" d="M128.399 58.646s.444 9.953-5.901 12.367c-6.333 2.413-7.875 2.033-10.247 1.087-2.384-.944-4.977-1.898-4.861-5.175.117-3.274.61-6.171 3.377-6.81 4.347-1.001 9.079-1.958 10.212-1.525 1.122.436 3.377 1.962 3.377 1.962s-.07-4.753.771-7.298c.83-2.547 1.251-4.508.655-6.32-.608-1.81-.795-3.46-1.753-3.16-.958.3-5.387 1.725-7.794 1.798-2.43.075-5.678-1.308-5.678-1.308l-1.589 3.378s-1.438 1.036-3.541.218c-2.103-.818-3.832-2.512-3.715-3.324.128-.81 5.351-3.485 5.351-3.485s-1.39-1.817-.818-2.669c.573-.853 6.205-.758 8.016-2.07 1.822-1.312 5.047-2.675 6.718-2.78 1.659-.104 4.031 1.473 4.031 1.473s3.202.246 4.207.6c2.243.79 6.73 2.981 8.074 8.388 1.343 5.406.724 8.094.163 10.24-.572 2.146-5.456 7.953-5.456 7.953l-3.599-3.54zM68.68 229.295l18.882.329-.327 3.103.596 3.813s-2.127 1.465-3.6 3.867c-1.471 2.405-3.166 4.797-3.166 4.797l-17.07.053s.105-3.571-1.531-5.282c-1.648-1.715-3.062-2.562-3.062-2.562l7.42-2.56 1.484-2.942.374-2.616zM36.73 185.14s1.882 1.608 2.35 5.282c.466 3.674.537 7.573.537 7.573l15.715 4.139s1.834-1.713 3.82-2.669c1.987-.955 4.37-1.361 4.37-1.361l3.973-7.735s-4.685.96-8.938-1.472c-4.265-2.43-5.83-3.825-6.275-4.74-.455-.914-.712-2.286-.712-2.286l-1.31 1.796-6.6 2.888-6.93-1.415z" fill="#1A202C"/><path fill-rule="evenodd" clip-rule="evenodd" d="M58.895 167.167l15.33-32.741s3.88-11.094 16.148-8.932c12.268 2.162 55.594 13.399 55.594 13.399l25.157.71s3.33 14.745 2.454 18.739c-.877 3.996-8.425 16.522-18.438 16.235-10.026-.291-23.03-5.229-23.03-5.229l-28.908.869-10.375 39.44-20.507-2.669 4.032-32.193s-3.506 1.579-9.383-.873c-5.877-2.453-8.074-6.755-8.074-6.755z" fill="#07C969"/><path fill-rule="evenodd" clip-rule="evenodd" d="M120.181 72.853c-2.898.954-5.503.83-7.747 1.905-2.161 1.045-3.879 2.515-5.503 4.14-3.155 3.155-4.861 7.792-6.765 12.473a1619.867 1619.867 0 00-9.605 24.077c-.409 1.046-.795 3.251-1.905 3.049-1.25-.225-.011-2.407.222-2.996 2.921-7.436 5.703-14.748 8.67-22.114 1.695-4.23 3.319-8.501 5.504-12.092 2.231-3.656 5.316-6.359 9.336-8.28-1.905-.832-3.038-1.273-4.148-2.668-1.508-1.876-1.309-6.394-.059-8.442.152-.248.362-.524.608-.818.21-.255.561-.62.596-.817.058-.397-.293-1.123-.328-1.633-.07-.857.106-1.786.386-2.562.222-.663 1.005-2.492 1.846-1.306.561.791-.619 2.06-.654 3.214-.012.546.152.89.222 1.47.526.054 1.11-.309 1.741-.326.128-.24-.211-.4-.327-.546-.9-1.214 1.098-2.09 1.53-3.05.76-1.676-.35-3.846-1.53-4.303-.596-.232-1.554-.276-2.676-.218-.83.045-2.092.274-2.337-.38-.269-.683.304-1.112.386-1.743-2.127.085-3.319-.699-4.592-1.744-.713-.593-1.998-1.596-2.01-2.506-.023-1.132 1.308-1.694 2.126-2.124 1.005-.536 1.952-.856 2.945-1.252-.456-.772-1.227-2.895-.222-3.758.654-.558 2.664-.6 3.821-.762 2.909-.405 4.674-1.254 6.987-2.18 1.052-.423 2.068-1.079 3.155-1.362 2.664-.687 5.129.802 7.361 1.416 2.43.665 4.662 1.296 6.555 2.562 3.248 2.175 5.48 7.426 5.398 12.8-.082 5.607-2.769 9.424-6.274 11.928-.164.728-.105 1.678-.386 2.287.713 1.687 1.063 3.69 2.512 4.521 1.204.692 3.623.556 5.457.49 1.998-.072 4.019-.274 5.62-.381 2.01-.133 3.985-.276 5.725 0 4.978.784 9.29 2.98 11.895 6.154 1.811 2.208 3.027 4.944 4.195 7.79 3.482 8.432 6.835 17.15 9.873 26.198.468 1.362 1.029 2.898 1.531 4.468.479 1.516 1.133 3.204 1.262 4.739.268 3.496-1.391 6.346-3.003 8.06-1.834 1.955-4.335 3.038-7.537 3.54 1.204 6.757 2.501 13.415 3.447 20.316.246 1.805.538 3.647.596 5.34.071 1.861-.35 3.613-.759 5.173-.865 3.218-2.325 5.348-4.312 7.517-3.634 3.958-8.857 7.279-16.802 6.918-6.485-.294-11.778-2.096-16.966-3.813-.724-.239-1.53-.69-2.185-.761-1.11-.124-2.43.051-3.657.107-3.622.164-7.525-.097-11.123.054-4.931.208-9.827.023-14.735.164-3.295 11.744-6.286 24.53-9.43 36.658-.21.784-.63 1.858-.607 2.449.024.4.632.931.818 1.416.55 1.427 0 3.4-.268 5.229-.21 1.38-.269 2.814-.596 3.924-.503 1.649-2.092 2.761-4.312 2.395-.245 2.095-.502 4.318-.608 6.537a27.064 27.064 0 00.491 6.535c.386 1.865.631 3.99.491 6.537-.047.961-.175 2.041-.327 3.213-.105.845-.21 2.679-.76 2.942-1.004.481-3.505.098-5.012.164-5.188.218-9.955.162-15.225.218-4.896.049-10.072.162-15.272.162-1.554 0-4.545.37-4.86-.49-.28-.778.549-2.668.77-3.321 1.076-3.213 2.314-6.005 5.119-7.355 2.068-.992 4.405-1.167 6.438-1.906 2.138-.773 4.042-1.585 6.005-2.288.398-1.067 1.157-2.083 1.473-3.213.233-.818.257-1.769.385-2.723.293-2.205.632-4.392.982-6.81.07-.486.257-1.007.21-1.304-.058-.487-.69-1.048-.864-1.581-.41-1.222.07-3.164.327-4.849.397-2.668.385-5.221 2.348-6.264 1.157-8.024 2.279-16.096 3.482-24.075-.163-.09-.444.323-.654.546-.666.706-1.624 1.328-3.003 1.361-3.19 6.324-6.24 12.673-9.43 19.173-.397.811-.98 2.378-1.635 2.614-.654.233-2.477-.112-3.552-.218-3.657-.36-6.765-.986-9.815-1.741-4.066-1.007-8.25-2.093-11.731-3.651-3.202-1.432-6.415-4.273-8.401-7.026-1.087-1.515-1.905-3.369-1.145-5.883.502-1.633 1.705-3.629 3.33-4.357 1.051-.474 2.558-.347 3.926-.219 3.388.32 6.145.874 9.277 1.527.538.112 1.239.407 1.74.381.445-.024 1.053-.457 1.532-.653 1.121-.463 1.94-.801 3.05-1.255.513-.208 1.156-.332 1.53-.599.409-.289.736-1.048 1.086-1.577 1.087-1.635 2.15-3.307 3.167-4.85-1.145-2.196-.058-4.931.877-7.243 1.075-2.694 2.044-5.18 4.743-6.047 4.79-9.415 9.02-19.772 14.244-28.923 2.699-4.739 5.246-9.04 11.941-9.64 7.116-.637 13.005 1.365 18.707 2.616.736-1.045 1.227-2.239 1.799-3.378 1.695-3.357 3.517-6.786 5.247-10.187-.257-.573-.538-.957-.713-1.525-.725-2.277.315-4.575 1.04-6.371.829-2.077 1.706-3.681 2.991-4.85-.421.014-.76.426-1.087.708-.327.279-.642.595-.981.872-.655.531-1.496 1.319-2.232 1.526-1.39.39-3.12-.229-3.283-1.308-.199-1.335 1.227-2.494 1.858-3.213.853-.968 1.53-1.825 2.29-2.724-.187-.605-.327-1.117-.491-1.687-.14-.524-.152-1.177-.432-1.744-.363-.748-1.917-1.245-1.8-2.288.024-.267.281-.604.655-.653.677-.09 1.051.556 1.413.925.374.375.9.627 1.145 1.144.514 1.058.433 2.258.877 3.16.818-.444 1.811-1.052 3.003-.816 1.449.285 2.921 1.364 4.253 2.177 3.318 2.036 6.368 4.218 9.546 6.537.608.446 1.273 1.09 1.858 1.308.853.322 2.045.402 3.108.598 7.163 1.33 14.524 2.56 21.709 3.921-2.033-4.411-4.603-9.487-6.928-14.105-.292-.571-1.414-2.459-.105-2.615.864-.104 1.18 1.075 1.518 1.796 2.407 5.098 5.2 10.22 7.584 15.306 1.121.184 2.407.443 3.926.708 1.098.189 3.306.236 3.283 1.308-.023.793-.946.905-1.694.6 1.04 1.44 1.939 3.631 2.395 6.209.549 3.049.678 7.031-.701 9.258 4.09 1.009 8.214-.388 10.469-2.395 1.227-1.088 2.138-2.632 2.559-4.25.257-.947.421-2.009.339-3.049-.082-.908-.444-1.765-.713-2.67-2.045-6.892-4.697-13.647-7.092-20.045-1.18-3.164-2.442-6.568-3.762-9.858-1.309-3.237-2.618-6.525-4.476-9.097-1.822-2.511-4.837-4.381-8.179-5.39-1.799-.54-3.762-.969-5.947-.872-2.068.09-4.195.299-6.333.436-1.881 3.907-4.872 7.71-9.815 9.422-2.407.832-5.877.973-8.565.6-1.495-.209-2.57-.478-3.388-1.418a5.08 5.08 0 01-1.25-3.54c.035-1.089.443-1.928.759-2.94zm12.28-12.637c2.629-1.919 4.896-5.437 5.071-9.696.129-3.339-.666-6.343-2.021-8.822-.619-1.138-1.379-2.237-2.395-2.998-2.033-1.512-5.001-2.263-7.747-3.103-1.274-.392-3.096-1.067-4.534-.926-1.098.107-2.208.868-3.33 1.306-1.051.42-2.115.868-3.155 1.254-2.255.835-4.498 1.228-7.314 1.526-.292 1.427 1.332 1.873 1.204 2.995-.106.844-1.928 1.177-2.676 1.47-1.087.422-1.986.869-2.781 1.361 1.332 1.414 2.536 2.95 5.562 2.67.269-.943 1.075-1.595 1.308-2.398.129-.435-.058-.84.327-1.087.55-.35 1.297.024 1.695.107 1.904.402 3.949.541 5.83.272 2.138-.306 3.681-.484 5.41-1.144.643-.245 1.005-.557 1.741-.436 1.215.203 1.811 2.596 2.127 4.032.362 1.66.455 3.698.058 5.283-.374 1.497-.876 2.93-1.04 4.957-.058.744-.117 1.875-.164 2.831-.058 1.17.094 2.174-.759 2.235-.689.049-1.367-.76-1.858-1.09-.561-.38-1.355-.886-1.963-1.034-1.858-.454-3.937.152-5.783.435-.702.106-1.473.26-2.232.434-.725.166-1.671.277-2.185.546-.479.252-1.133 1.187-1.367 1.58-.736 1.266-1.075 4.535-.269 6.155.222.445.607.82.923 1.09 1.718 1.447 4.51 2.164 7.256 1.798 2.547-.342 5.059-1.3 6.602-2.67 2.138-1.91 3.096-4.87 3.493-8.116.269-2.185.526-5.393.655-8.062.012-.4-.129-.752.058-1.415.281-1 1.893-.808 1.578.598 2.103-.879 4.218.395 4.907 1.851 1.157 2.45-.771 4.848-2.232 5.83-.257.166-.794.255-.771.708.269.107.573-.185.771-.327zm-7.969-5.719c.328-1.548.935-2.93 1.041-4.413.151-2.216-.55-4.072-1.204-5.773-3.517 1.086-8.833 2.387-13.145 1.09-.713 1.28-1.46 2.54-1.963 4.03.853-.046 1.461-.126 2.232-.054 2.594.241 4.51 2.536 4.206 5.5-.105 1-.619 1.843-1.145 2.452-.128.146-.607.562-.607.654.011.216.642.494.817.707 1.578-.242 3.447-.66 5.188-.653 1.765.007 3.027.789 4.148 1.471.035-1.818.105-3.426.432-5.01zm8.892 14.978c-1.659-1.654-2.36-4.304-2.944-7.027-.187-.839-.631-2.198-.386-2.885.164-.441.853-.643 1.368-.982.993-.654 2.208-1.789 1.962-3.431-.21-1.437-2.547-2.242-3.703-1.088.035.438-.094.71-.059 1.144.573-.18 2.874-1.677 2.839-.165-.011.623-.782.796-1.308 1.034-.619.283-1.099.548-1.636.764-.292 5.619-1.18 10.634-4.312 13.398.304.517.923 1.085.982 1.961.047.87-.479 2.06-1.262 2.07-.479.009-.795-.319-.818-.76-.012-.401.456-.73.444-1.2-.023-.532-.432-.608-.596-1.089-.631.343-1.238.7-1.916.98-.164 1.44-.947 2.184-.982 3.648-.023 1.13.491 2.368 1.251 2.832.631.385 1.869.521 2.78.6 3.517.304 6.707-.312 8.729-1.416 3.26-1.77 5.34-4.107 6.66-7.026-2.886.07-5.679.05-7.093-1.362zm31.583 54.523c.374-4.377-.794-8.885-2.839-11.003-1.262-1.311-3.201-1.395-5.398-1.796-5.877-1.082-11.86-2.125-17.725-3.215-2.431-.451-4.826-1.101-7.093-1.307-.21-.02-.537.045-.759 0-.526-.103-1.344-.944-1.917-1.362-3.797-2.798-7.536-5.524-11.778-7.897-.759-.425-1.869-1.13-2.617-.872-1.472.507-2.477 1.75-3.494 2.941-.888 1.037-1.857 2.046-2.29 2.997 1.297.344 2.033-.621 2.945-1.362.385-.32.818-.657 1.25-1.036.444-.385.888-.904 1.367-.926.771-.034 1.005.543 1.589.818.409-.4 2.326-1.535 2.29 0-.023.753-1.437 1.438-2.079 1.96-1.648 1.356-2.396 2.779-3.214 4.903-.619 1.593-1.18 3-.817 4.901.946-1.569 1.577-3.319 2.886-4.955.537-.676 1.168-1.278 1.916-2.016.409-.414 1.425-1.759 2.232-1.69.385.034.7.463.712.764.012.735-1.495 1.762-1.916 2.178-.724.728-1.46 1.425-1.963 2.126-1.215 1.701-1.881 3.528-2.839 5.336.397.572.818 1.109 1.367 1.526.853-1.665 1.519-3.382 2.944-4.903.608-.643 1.215-1.187 2.08-1.852.467-.371 1.589-1.591 2.454-1.469.374.052.654.42.654.761 0 .49-.514.783-.876 1.036-1.204.846-2.372 1.724-3.213 2.668-1.075 1.189-1.835 2.871-2.513 4.303-.081.174-.257.4-.163.601.771.359 1.589-.235 2.232-.655 1.261-.818 2.371-1.948 3.493-2.941.549-.483 1.157-1.424 1.905-1.361.444.035.724.435.712.817-.023 1.02-1.472 1.192-1.799 2.07 1.963.993 3.541 2.573 5.726 3.213.864.25 1.717.204 2.57.162.818-.038 1.811-.288 2.723-.162.537.075 1.168.429 1.799.655 9.254 3.249 18.695 6.68 28.206 9.422 1.028-.706 1.145-2.102 1.25-3.378zm-46.469-6.645c1.181 4.867 2.501 9.589 3.646 14.487 6.193 1.575 12.713 3.394 18.929 5.011.923.241 1.881.619 2.734.711 2.15.228 4.382.164 6.543.216 6.625.159 12.97.558 19.583.71-.432-2.925-1.04-5.682-1.53-8.553-.421.001-.935.015-1.414-.055-2.933-.424-5.842-1.509-8.728-2.397-7.794-2.393-15.178-5.181-22.75-7.842-.736-.261-1.531-.655-2.127-.709-.642-.058-1.226.138-1.799.165-2.302.104-3.622-.184-5.129-.926-1.8-.889-3.307-1.847-5.013-3.051a35.976 35.976 0 01-2.945 2.233zm-5.9-2.124c-2.103 4.198-4.253 8.355-6.38 12.526 4.744 1.126 9.511 2.53 14.185 3.542-1.192-4.409-2.302-8.888-3.435-13.343-2.349-.017-3.003-1.729-4.37-2.725zm37.589 24.184c-.924-.035-2.185-.283-2.887-.109-.455.109-.455.516-1.039.543-.491.025-1.134-.256-1.8-.434-1.846-.498-3.692-.934-5.456-1.417-12.199-3.319-23.767-6.476-36.117-9.422-4.954-1.183-10.025-2.622-15.926-2.343-2.78.131-4.989.805-6.66 2.125-1.589 1.26-2.57 2.931-3.762 4.792a62.203 62.203 0 00-3.109 5.447c-3.844 7.636-7.513 15.4-11.181 23.094-.924 1.949-2.034 3.866-2.618 5.991 1.648 2.158 4.125 3.735 6.824 5.011 2.477 1.174 5.96 2.594 9.488 1.691.432-2.251.69-4.54 1.086-6.755.41-2.215.725-4.465 1.473-6.374 1.495-3.773 4.288-6.146 8.19-7.517-.782-.525-2.816-.364-2.617-1.687.105-.724.923-.616 1.472-.436 1.8.589 3.53 1.313 5.013 1.852 15.786 5.703 31.268 11.53 47.24 16.885 2.302.773 4.627 1.613 7.093 2.069 2.57.478 5.246.842 8.19.98 5.913.284 10.061-2.094 13.25-4.954 3.295-2.958 5.714-6.365 6.111-12.203.094-1.389-.152-2.867-.327-4.246-.537-4.2-1.18-7.812-1.857-11.875-6.485-.235-13.496-.463-20.074-.708zm-55.91 17.157c-1.66-.597-3.272-1.366-4.92-1.798-.07-.019-.14.039-.21.054-2.454.579-4.253 1.278-5.889 2.616-1.542 1.254-2.722 2.855-3.447 5.065-.69 2.116-1.087 4.581-1.472 7.027-1.905 12.312-3.61 25.072-5.398 37.199 6.38.805 12.713 1.659 19.046 2.509 3.213-12.389 6.286-25.319 9.592-37.748.211-.78.515-2.029.935-2.234.608-.306 2.138-.107 3.155-.107 7.758 0 15.4-.172 22.866-.273-11.439-3.963-22.959-8.219-34.258-12.31zm-38.851 16.395c-.129.619-.339 1.665-.21 2.288.187.942 1.6 2.243 2.512 2.996a20.497 20.497 0 003.318 2.231c2.63 1.436 5.2 2.627 8.296 2.834.911.06 2.033-.01 2.617-.218 1.215-.434 2.197-2.373 2.735-3.432.222-.451.572-.912.7-1.307.234-.672.106-1.362.328-2.179-2.302.439-4.71-.08-6.766-.707-4.837-1.485-9.02-4.224-11.345-7.953-.783 1.47-1.741 3.459-2.185 5.447zm-.433 5.01c-.338.627-.77 1.216-1.25 1.961-.642 1-1.449 1.677-.981 3.05.28.84 1.344 1.907 2.127 2.616 2.628 2.385 7.933 5.247 12.326 3.431.643-1.373 1.332-2.696 1.905-4.14-6.193-.815-10.551-3.476-14.127-6.918zm1.8 11.058c-2.243-1.326-4.288-3.051-5.503-5.176-.433.549-1.332.821-2.127 1.145-1.203.488-2.384.937-3.552 1.415-.654.27-1.285.674-1.8.711-.806.053-1.799-.311-2.675-.493-.876-.182-1.741-.415-2.664-.543 1.659 2.496 2.897 6.44 2.173 11.055 4.171 1.16 8.565 2.295 12.818 3.433.56.15 1.472.551 1.858.49.187-.029.619-.446.876-.653 2.115-1.715 4.288-2.851 7.198-3.649.876-1.852 1.986-3.759 2.675-5.612-3.809.551-6.812-.67-9.277-2.123zm.444 12.636c-.456.359-1.063 1.029-1.59 1.09-.583.067-1.413-.292-2.184-.49-3.704-.963-6.882-1.865-10.528-2.834-1.005-.265-3.634-.602-3.926-1.415-.152-.424.012-1.15.059-1.742.047-.654.105-1.33.105-1.852.046-2.858-.491-4.495-1.473-6.318-.268-.517-.992-2.135-1.53-2.399-.292-.148-.888-.148-1.356-.216-1.261-.185-3.248-.534-4.533-.381-1.309.157-2.185 1.089-2.781 2.178-.467.864-.9 2.109-.818 3.269.129 1.771 1.519 3.042 2.57 4.193 1.006 1.106 1.929 1.973 2.992 2.778 2.302 1.741 4.872 2.759 7.864 3.703 6.344 2.006 11.953 3.326 19.197 3.867 1.029-2.08 2.08-4.13 3.061-6.263-2.021.546-3.622 1.627-5.129 2.832zm13.963 7.789c-.374.799-.514 2.678-.713 4.141-.21 1.568-.724 3.29-.269 4.303.456 1.011 1.566 1.002 3.003 1.198 5.001.681 9.768 1.272 14.828 1.959.9.123 1.963.356 2.512.218 1.274-.316 1.367-1.59 1.577-2.995.234-1.445.398-2.744.608-4.194.117-.758.292-1.577.105-2.126-.385-1.161-1.612-1.17-3.003-1.361-2.594-.352-5.013-.66-7.361-.98-2.652-.362-4.837-.656-7.303-.98-.841-.11-1.963-.328-2.617-.217-.608.101-1.122.5-1.367 1.034zm-1.262 18.464H87.02c.152-1.748.315-3.491.432-5.282-5.445-.754-10.937-1.457-16.417-2.178-.467 2.389-.76 4.939-1.098 7.46zm-.269 1.852c-.093 1.42-.642 2.177-1.145 3.269-.28.609-.502 1.564-.923 1.96-.316.288-.993.412-1.484.599-1.589.626-3.085 1.24-4.58 1.798 1.74 1.657 2.804 4.466 3.82 7.027 5.2-.039 10.365-.107 15.494-.218 1.262-2.494 2.98-4.478 4.744-6.536.362-.414 1.624-1.591 1.694-2.124.047-.342-.152-.922-.222-1.362-.21-1.503-.257-2.896-.163-4.575H69.728c-.07.009-.059.085-.059.162zm18.006 7.953c-1.59 1.723-3.295 3.759-4.639 6.047-.409.687-.958 1.849-1.472 2.015-.49.154-1.332.072-2.08.108-.736.036-1.542 0-2.173 0-3.12 0-5.445.11-8.623.11-.935 0-3.517.339-4.253-.056-.35-.184-.48-.811-.713-1.362-.842-2.013-1.613-4.081-2.886-5.5-.35-.385-.701-.799-1.145-1.09-2.676.699-5.27.973-6.824 2.723-1.566 1.78-2.15 4.272-3.003 6.863 12.48-.162 24.982-.302 37.484-.434.362-2.811.97-6.461.327-9.424z" fill="#4A5568"/><path fill-rule="evenodd" clip-rule="evenodd" d="M119.903 47.973c.327-.038.982-.054 1.414.054.853.212 2.489.831 2.454 1.69-.012.354-.246.713-.655.762-.818.101-1.425-.8-2.337-.927-.794-.107-1.46.14-1.963.33-.677.247-2.348 1.091-2.29-.275.024-.787 1.484-1.252 2.29-1.47.374-.104.666-.117 1.087-.164zM119.225 60.118c.491-.124.981.103 1.04.6.093.867-1.18 1.766-2.021 2.069-.702.252-3.716.728-3.003-.925.303-.696 1.857-.286 2.675-.708.76-.398.608-.857 1.309-1.036z" fill="#4A5568"/><path fill-rule="evenodd" clip-rule="evenodd" d="M132.575 48.198c3.026 0 5.515 3.03 5.562 6.772.046 3.74-2.373 6.773-5.399 6.773s-5.527-3.034-5.573-6.773c-.047-3.741 2.372-6.772 5.41-6.772z" fill="#A0AEC0"/><path fill-rule="evenodd" clip-rule="evenodd" d="M118.711 34.052c-.631.121 7.759-1.264 11.253 7.861 2.091 5.482.911 8.43.911 8.43l2.185-.11s.035-5.156-1.04-9.88c-1.203-5.292-7.63-6.559-7.641-6.573l-5.668.272z" fill="#A0AEC0"/><path fill-rule="evenodd" clip-rule="evenodd" d="M63.15 123.191h69.241a2.73 2.73 0 012.735 2.724v3.267a2.73 2.73 0 01-2.735 2.724H63.15a2.73 2.73 0 01-2.734-2.724v-3.267a2.73 2.73 0 012.734-2.724z" fill="#CBD5E0"/><path d="M132.323 132.654H63.081a3.547 3.547 0 01-3.552-3.541v-3.268a3.546 3.546 0 013.552-3.539h69.242c1.951 0 3.552 1.586 3.552 3.539v3.268c0 1.953-1.601 3.541-3.552 3.541zm-69.242-8.715a1.917 1.917 0 00-1.917 1.906v3.268c0 1.051.865 1.906 1.917 1.906h69.242a1.906 1.906 0 001.904-1.906v-3.268a1.906 1.906 0 00-1.904-1.906H63.081z" fill="#1A202C"/><path fill-rule="evenodd" clip-rule="evenodd" d="M46.36 90.436h54.73c1.507 0 3.131 1.034 3.622 2.308l11.825 30.633c.491 1.275-1.601 4.084-3.108 4.084h-54.73c-1.507 0-3.131-1.032-3.622-2.306L43.264 94.54c-.491-1.272 1.589-4.104 3.096-4.104z" fill="#CBD5E0"/><path d="M113.493 128.336h-54.73c-1.846 0-3.773-1.242-4.381-2.829L42.557 94.893c-.444-1.159.386-2.554.76-3.1.7-1.023 1.893-2.115 3.108-2.115h54.741c1.835 0 3.763 1.242 4.37 2.83l2.956 7.658.008 2.334 1.47 1.495 1.478 3.83.552 4.675 2.405 2.983 2.956 7.658c.444 1.149-.374 2.527-.736 3.066-.713 1.029-1.905 2.129-3.132 2.129zM46.425 91.312c-.386 0-1.157.526-1.753 1.406-.526.764-.654 1.387-.584 1.587l11.824 30.614c.374.967 1.671 1.783 2.852 1.783h54.729c.398 0 1.169-.53 1.776-1.419.514-.748.643-1.358.561-1.553l-11.813-30.633c-.374-.968-1.682-1.785-2.851-1.785H46.425z" fill="#1A202C"/><path fill-rule="evenodd" clip-rule="evenodd" d="M76.88 107.636c2.443 0 5.014 1.886 5.738 4.217.736 2.33-.654 4.22-3.096 4.22-2.443 0-5.013-1.89-5.738-4.22-.736-2.331.655-4.217 3.097-4.217z" fill="#1A202C"/><path fill-rule="evenodd" clip-rule="evenodd" d="M71.815 140.009s5.62-14.854 15.073-14.536c9.452.318 37.156 7.75 37.156 7.75l-12.046 4.413-40.183 2.611v-.238z" fill="#07C969"/><path fill-rule="evenodd" clip-rule="evenodd" d="M104.547 127.32c-5.702-1.251-11.59-3.253-18.706-2.616-6.696.6-9.243 4.901-11.942 9.64-2.85 4.991-5.398 10.344-7.91 15.704h1.846a765.115 765.115 0 015.62-11.455 62.031 62.031 0 013.108-5.447c1.192-1.861 2.174-3.533 3.763-4.793 1.67-1.319 3.879-1.993 6.66-2.124 5.9-.279 10.971 1.16 15.925 2.343 5.223 1.244 19.151 4.875 24.199 6.192l1.46-1.254c-3.984-.944-18.309-4.804-22.328-5.757-.818-.182-1.134-.299-1.695-.433zM114.834 96.48c.748-.259 1.858.446 2.617.87 4.242 2.374 7.981 5.1 11.778 7.898.573.417 1.391 1.259 1.917 1.361.222.046.549-.02.759 0 2.267.207 4.662.857 7.093 1.308 2.231.414 4.475.82 6.73 1.227v-1.676c-3.739-.66-7.467-1.32-11.147-2.002-1.063-.196-2.255-.277-3.108-.599-.585-.218-1.25-.862-1.858-1.307-3.178-2.32-6.228-4.501-9.546-6.537-1.332-.813-2.805-1.893-4.253-2.177-1.192-.236-2.185.372-3.003.815-.444-.902-.363-2.1-.877-3.16a1.72 1.72 0 00-.432-.547h-2.465c.444.523 1.238.914 1.484 1.42.28.566.292 1.22.432 1.744.164.57.304 1.082.491 1.687-.76.9-1.437 1.755-2.29 2.724-.631.718-2.057 1.878-1.858 3.213.163 1.079 1.893 1.697 3.283 1.308.736-.207 1.577-.996 2.232-1.526.338-.277.654-.593.981-.872.327-.282.666-.694 1.087-.708-1.285 1.169-2.162 2.773-2.991 4.85-.725 1.795-1.765 4.094-1.04 6.371.175.568.456.952.713 1.525.479.557.642 1.074 1.028 1.472 1.367.995 2.021 2.708 4.37 2.724l.28 1.098c.023-.037.059-.076.082-.114a3.366 3.366 0 011.355-.809c-.058-.259-.128-.517-.187-.776a35.697 35.697 0 002.945-2.233c1.706 1.204 3.213 2.162 5.013 3.051 1.507.742 2.827 1.03 5.129.927.572-.027 1.157-.223 1.799-.165.596.054 1.391.448 2.127.708 3.424 1.205 6.812 2.434 10.224 3.64v-1.732c-3.435-1.195-6.836-2.409-10.224-3.595-.631-.225-1.262-.58-1.799-.654-.912-.126-1.905.123-2.723.162-.853.042-1.706.087-2.571-.162-2.185-.641-3.762-2.22-5.725-3.213.327-.879 1.776-1.05 1.799-2.07.012-.383-.268-.783-.712-.818-.748-.063-1.356.879-1.905 1.362-1.122.993-2.232 2.123-3.494 2.941-.642.42-1.46 1.014-2.231.654-.094-.2.081-.427.163-.6.678-1.432 1.438-3.114 2.513-4.303.841-.944 2.009-1.822 3.213-2.668.362-.253.876-.546.876-1.036 0-.341-.28-.71-.654-.761-.865-.122-1.987 1.098-2.454 1.469-.865.665-1.472 1.209-2.08 1.851-1.425 1.522-2.091 3.239-2.944 4.904-.549-.418-.97-.954-1.367-1.526.958-1.808 1.624-3.635 2.839-5.336.503-.702 1.239-1.398 1.963-2.126.421-.417 1.928-1.443 1.916-2.178-.012-.301-.327-.731-.712-.764-.807-.069-1.823 1.276-2.232 1.69-.748.737-1.379 1.339-1.917 2.016-1.308 1.636-1.939 3.386-2.886 4.955-.362-1.902.199-3.309.818-4.901.818-2.125 1.566-3.547 3.214-4.904.642-.521 2.056-1.206 2.079-1.96.035-1.534-1.881-.399-2.29 0-.584-.274-.818-.851-1.589-.818-.479.023-.923.542-1.367.927-.432.379-.865.716-1.25 1.036-.912.741-1.648 1.705-2.945 1.361.433-.951 1.402-1.96 2.29-2.996 1.017-1.192 2.022-2.435 3.494-2.94z" fill="#4A5568"/></svg>